
<svg width="826px" height="610px" viewBox="0 0 826 610" version="1.1" xmlns="http://www.w3.org/2000/svg" xmlns:xlink="http://www.w3.org/1999/xlink">
    <g id="Page-1" stroke="none" stroke-width="1" fill="none" fill-rule="evenodd">
        <g id="64665" transform="translate(-101.000000, -153.000000)">
            <path d="M462.507,670.631 C439.483,670.704 416.459,671.29 393.477,673.998 C384.811,675.02 376.327,677.266 367.642,678.171 C350.293,679.98 333.255,683.356 315.844,684.913 C301.824,686.167 287.745,686.907 273.765,688.498 C260.659,689.99 246.149,689.646 233.144,687.182 C223.515,685.357 213.843,684.33 204.376,681.4 C193.787,678.122 182.282,675.778 171.249,675.863 C155.515,675.983 140.193,675.997 125.135,681.785 C119.85,683.816 113.38,687.156 109.366,691.42 C100.178,701.181 98.934,725.535 108.108,735.658 C123.561,752.696 156.54,759.382 178.199,759.697 C201.934,760.043 224.99,758.177 248.76,757.079 C270.846,756.059 292.878,754.607 315.001,754.659 C360.185,754.764 405.375,754.659 450.478,751.461 C492.853,748.457 535.334,749.488 577.802,749.488 C621.351,749.488 664.606,749.852 707.84,755.982 C726.678,758.654 745.87,759.59 764.802,761.461 C781.758,763.138 798.052,761.428 814.94,759.879 C829.121,758.578 843.209,754.72 856.092,748.197 C866.29,743.034 884.47,726.994 887.598,714.67 C896.365,680.12 764.037,680.951 743.72,681.028 C720.991,681.116 698.082,681.908 675.371,680.99 C665.818,680.604 656.405,678.626 647.081,676.458 C637.794,674.299 628.437,674.848 619.019,673.94 C579.745,670.157 540.383,670.71 500.983,670.71 C488.162,670.71 475.334,670.591 462.507,670.631" id="Fill-4" fill="#F7F7F7"></path>
            <polyline id="Fill-5" fill="#B97262" points="277.501 348.638 275.738 336.731 280.794 335.755 283.807 343.642 285.984 342.071 286.252 352.444 281.132 354.167 277.501 348.638"></polyline>
            <polyline id="Fill-6" fill="#B5D6CA" points="353.985 410.505 308.437 398.654 287.339 348.901 277.356 352.84 289.247 417.102 341.715 444.128 353.985 410.505"></polyline>
            <polyline id="Fill-7" fill="#5BBCB9" points="744.575 405.322 701.417 436.815 663.782 420.555 658.259 430.708 686.762 450.121 702.74 456.093 744.575 435.952 744.575 405.322"></polyline>
            <path d="M774.298,208.473 L906.47,219.458 C918.705,220.475 927.798,231.217 926.781,243.451 L919.7,328.648 C918.688,340.833 908.025,349.912 895.835,348.97 L874.585,347.327 L847.546,379.288 C846.756,380.222 845.233,379.604 845.316,378.384 L847.584,345.083 L763.49,337.895 C751.278,336.851 742.216,326.12 743.231,313.906 L750.305,228.784 C751.322,216.55 762.064,207.457 774.298,208.473" id="Fill-8" fill="#1A3151"></path>
            <polyline id="Fill-9" fill="#FFFFEE" points="775.066 238.778 880.634 247.783 881.01 243.384 775.442 234.379 775.066 238.778"></polyline>
            <polyline id="Fill-10" fill="#FFFFEE" points="772.205 272.317 898.117 283.058 898.492 278.66 772.581 267.919 772.205 272.317"></polyline>
            <polyline id="Fill-11" fill="#FFFFEE" points="769.344 305.857 895.256 316.598 895.631 312.199 769.719 301.458 769.344 305.857"></polyline>
            <polyline id="Fill-12" fill="#9EA6AD" points="676.255 554.15 678.788 612.896 671.363 712.783 660.253 713.573 646.754 622.852 628.081 546.083 676.255 554.15"></polyline>
            <polyline id="Fill-13" fill="#1A3151" points="660.65 718.253 673.091 723.406 678.671 716.973 672.237 711.393 660.223 712.246 660.65 718.253"></polyline>
            <polyline id="Fill-14" fill="#9EA6AD" points="597.608 533.362 595.17 577.767 602.404 709.8 613.528 710.355 630.2 623.76 644.906 528.795 597.608 533.362"></polyline>
            <polyline id="Fill-15" fill="#1A3151" points="613.23 715.044 600.899 720.457 595.185 714.142 601.5 708.428 613.53 709.028 613.23 715.044"></polyline>
            <path d="M662.289,402.549 L627.575,398.83 C627.575,398.83 608.264,400.894 595.16,446.756 C587.87,472.271 585.651,512.472 585.117,543.119 C585.937,547.491 590.7,566.641 610.84,563.393 C645.426,557.814 663.835,552.236 678.896,555.025 C691.727,557.814 690.642,540.149 689.232,526.669 L684.119,484.959 L662.289,402.549" id="Fill-16" fill="#EBB044"></path>
            <path d="M655.585,359.339 C646.836,357.41 637.83,355.682 629.072,357.417 C627.153,357.796 625.094,358.464 624.053,360.12 C623.65,360.761 623.437,361.501 623.24,362.233 C621.03,370.449 618.226,382.629 623.635,390.199 C624.666,391.643 626.051,392.789 627.54,393.719 C629.53,394.962 631.733,395.808 634.012,396.258 C633.541,398.301 632.885,400.301 632.052,402.226 C634.055,405.245 643.399,405.607 645.127,402.712 C645.224,400.207 645.32,397.701 645.417,395.195 C646.555,394.736 647.654,394.177 648.685,393.498 C652.679,390.868 655.31,386.876 656.838,382.411 C658.502,377.549 660.844,372.927 662.364,367.972 C662.918,366.167 663.355,364.106 662.405,362.474 C661.394,360.737 659.212,360.146 657.249,359.708 C656.696,359.585 656.141,359.461 655.585,359.339" id="Fill-17" fill="#B97262"></path>
            <path d="M626.463,364.037 C630.787,361.255 637.275,360.058 641.342,360.353 C653.635,361.243 658.139,370.271 658.796,381.575 C662.183,377.271 668.538,371.856 668.922,366.317 C669.236,361.783 668.609,355.601 666.069,351.685 C663.692,348.021 657.615,346.009 654.001,343.886 C650.594,341.885 647.187,339.884 643.781,337.882 C643.072,337.466 642.344,337.042 641.534,336.902 C640.576,336.736 639.601,336.98 638.66,337.224 C630.607,339.305 622.555,341.386 614.503,343.467 C612.956,343.867 611.194,344.451 610.624,345.943 C610.278,346.852 610.481,347.866 610.689,348.815 C611.603,352.995 613.358,357.268 613.792,361.502 C614.284,363.962 615.751,376.571 620.107,375.116 C621.386,373.024 621.578,370.448 622.574,368.208 C623.311,366.553 624.708,365.165 626.463,364.037" id="Fill-18" fill="#1A3151"></path>
            <polyline id="Fill-19" fill="#EBB044" points="627.575 398.83 614.745 402.734 567.886 451.824 565.097 468.002 587.498 504.988 593.547 491.432 584.064 464.098 599.125 453.498 619.208 408.313 627.575 398.83"></polyline>
            <polyline id="Fill-20" fill="#145566" points="549.514 702.543 550.42 709.59 537.232 718.449 529.278 712.308 535.419 704.354 548.608 695.495 549.514 702.543"></polyline>
            <polyline id="Fill-21" fill="#1A3151" points="549.96 700.177 539.789 610.301 552.026 509.685 549.274 488.282 494.616 486.206 492.644 521.041 501.819 610.438 536.34 704.77 549.96 700.177"></polyline>
            <polyline id="Fill-22" fill="#145566" points="489.485 386.763 461.992 394.251 430.195 450.593 445.257 464.539 466.455 439.436 489.485 386.763"></polyline>
            <polyline id="Fill-23" fill="#1A3151" points="454.51 496.277 454.366 586.974 472.622 703.73 485.762 703.599 492.985 595.627 509.89 487.558 454.51 496.277"></polyline>
            <polyline id="Fill-24" fill="#145566" points="485.742 709.141 471.603 716.388 464.427 709.354 471.461 702.178 485.671 702.036 485.742 709.141"></polyline>
            <path d="M557.683,527.124 C557.557,523.193 557.339,519.913 557.307,518.742 C557.026,508.199 556.087,497.68 554.767,487.211 C553.584,477.83 552.091,454.541 550.486,445.218 C549.16,437.521 544.541,418.307 541.204,411.166 C532.904,393.41 535.468,391.77 499.011,386.498 C483.033,384.187 479.256,394.145 466.194,405.596 C464.906,406.725 464.976,413.449 464.677,415.23 C464.151,418.366 463.587,421.496 462.94,424.612 C462.432,427.062 461.871,429.503 461.242,431.928 L461.244,431.927 C461.244,431.927 450.277,481.832 443.025,492.431 C435.774,503.029 420.792,517.847 445.853,526.895 C450.294,528.33 454.763,529.696 459.386,530.427 C459.386,530.427 479.883,528.148 490.423,528.228 C500.131,528.3 509.879,529.282 519.423,530.928 C525.805,531.995 532.317,533.545 538.027,536.527 C543.473,539.372 547.404,543.558 552.93,546.503 C553.454,546.782 554.028,547.071 554.623,546.988 C557.797,546.549 557.946,535.396 557.683,527.124" id="Fill-25" fill="#145566"></path>
            <path d="M533.232,296.43 C533.232,296.43 528.008,293.839 528.030924,293.17 C528.054,292.501 528.933,283.049 528.933,283.049 L532.357,281.093 L533.796,277.065 C533.796,277.065 529.884,270.216 530.604,268.203 C531.323,266.188 536.545,275.094 536.545,275.094 L538.457,280.547 L538.945,289.352 L533.232,296.43" id="Fill-26" fill="#EFBFA5"></path>
            <polyline id="Fill-27" fill="#EFBFA5" points="477.558 431.392 488.245 423.246 484.963 418.527 476.41 422.484 475.894 419.532 467.597 427.615 470.347 432.982 477.558 431.392"></polyline>
            <polyline id="Fill-28" fill="#145566" points="476.204 434.269 467.632 423.068 438.122 440.865 445.397 464.626 476.204 434.269"></polyline>
            <path d="M498.969,391.505 C500.809,392.414 505.15,392.739 509.679,390.965 C510.592,390.608 511.208,389.728 511.195,388.748 C511.159,385.997 510.938,383.248 510.533,380.527 C513.93,379.333 517.855,377.542 518.448,373.989 C518.634,372.871 518.44,371.728 518.247,370.61 C517.449,365.99 516.651,361.37 515.852,356.75 C515.576,355.151 515.282,353.507 514.413,352.138 C512.888,349.735 509.929,348.684 507.125,348.197 C499.971,346.956 492.175,348.505 486.628,353.191 C485.151,354.438 483.816,355.938 483.166,357.757 C482.162,360.563 482.913,363.658 483.669,366.54 C484.368,369.2 485.066,371.86 485.765,374.52 C486.568,377.58 487.728,381.058 490.676,382.206 C492.241,382.814 494.089,382.637 495.507,383.538 C498.006,385.127 497.669,388.844 498.969,391.505" id="Fill-29" fill="#EFBFA5"></path>
            <path d="M457.677,345.429 C456.975,344.275 456.218,343.162 455.371,342.117 C453.536,339.855 451.275,337.917 449.799,335.406 C448.323,332.896 447.804,329.493 449.575,327.181 C450.718,325.689 452.573,324.943 454.376,324.413 C460.317,322.665 466.729,322.546 472.731,324.074 C478.447,325.529 483.563,327.938 489.318,325.789 C494.725,323.77 498.63,324.593 504.281,326.609 C510.396,328.791 518.605,329.305 524.14,332.386 C526.451,333.672 528.296,335.682 529.734,337.903 C534.715,345.596 534.742,356.203 529.801,363.922 C528.693,365.654 527.366,367.236 525.972,368.748 C523.087,371.876 519.637,375.741 515.668,376.9 C515.573,373.35 518.807,362.156 516.081,359.246 C511.754,354.628 501.971,356.239 496.603,357.376 C490.748,358.616 485.53,362.762 479.725,363.648 C475.548,364.286 470.218,362.237 466.665,360.079 C462.282,357.412 460.242,349.64 457.677,345.429" id="Fill-30" fill="#1A3151"></path>
            <polyline id="Fill-31" fill="#145566" points="519.213 389.942 547.316 375.159 528.031 296.43 541.315 289.252 574.881 375.159 538.945 418.527 519.213 389.942"></polyline>
            <polyline id="Fill-32" fill="#1A3151" points="312.881 707.745 312.275 713.711 323.601 720.891 330.173 715.53 324.813 708.958 313.488 701.779 312.881 707.745"></polyline>
            <polyline id="Fill-33" fill="#145566" points="312.443 525.743 310.601 543.862 326.78 624.835 312.452 705.759 324.046 709.329 361.533 613.112 363.589 583.697 358.512 522.765 312.443 525.743"></polyline>
            <polyline id="Fill-34" fill="#145566" points="400.309 531.911 400.681 608.459 385.595 707.052 374.504 706.978 368.11 615.868 353.544 524.704 400.309 531.911"></polyline>
            <polyline id="Fill-35" fill="#1A3151" points="374.537 711.654 386.49 717.731 392.527 711.775 386.571 705.738 374.577 705.658 374.537 711.654"></polyline>
            <path d="M409.656,520.677 C401.655,495.892 400.802,469.867 398.475,444.048 C397.785,436.431 397.052,428.645 393.881,421.685 C390.24,413.691 384.22,409.473 377.208,407.168 C368.281,404.234 357.748,404.403 348.467,403.838 C339.661,403.561 331.871,436.664 322.888,452.711 C317.383,462.545 311.711,471.243 307.998,481.971 C304.434,492.266 301.012,502.743 298.939,513.455 C295.808,529.628 287.802,540.921 295.448,546.423 C296.149,546.654 296.824,546.884 297.465,547.113 C310.007,551.606 322.985,554.932 336.2,556.677 C347.923,558.224 359.83,558.506 371.601,557.345 C387.715,555.757 403.327,553.48 417.531,545.077 C414.906,536.944 412.281,528.811 409.656,520.677" id="Fill-36" fill="#B5D6CA"></path>
            <path d="M344.158,379.2 C349.175,364.055 371.277,358.78 376.415,376.382 C377.959,381.671 378.888,387.283 377.838,392.692 C376.788,398.102 373.483,403.292 368.438,405.509 L368.352,405.545 C368.549,406.948 368.746,408.352 368.943,409.756 C368.985,410.058 369.021,410.391 368.851,410.644 C368.658,410.932 368.275,411.007 367.932,411.058 C366.256,411.308 364.58,411.558 362.904,411.808 C362.074,411.932 361.208,412.054 360.409,411.798 C358.658,411.237 357.93,409.139 357.853,407.302 C357.835,406.863 357.839,406.419 357.845,405.975 C347.927,402.577 340.879,389.1 344.158,379.2" id="Fill-37" fill="#B97262"></path>
            <path d="M371.086,353.339 C375.133,352.737 378.579,356.662 382.313,358.722 C385.419,360.437 388.941,360.891 392.161,362.312 C395.381,363.732 398.546,366.698 398.613,370.41 C401.876,368.712 405.41,366.971 409.066,367.675 C412.722,368.38 416.116,372.745 414.659,376.343 C413.355,379.564 409.152,380.323 407.754,383.495 C405.541,388.511 411.522,396.303 407.441,399.63 C406.46,400.43 405.125,400.624 404.16,401.447 C402.963,402.47 402.578,404.227 402.045,405.788 C399.629,412.868 392.493,417.492 385.444,416.546 C381.061,414.492 377.567,410.251 376.001,405.395 C374.113,399.541 377.245,397.497 377.774,392.002 C378.351,385.997 376.441,379.638 372.66,374.974 C370.2,371.939 366.68,369.324 362.959,368.969 C361.447,368.825 361.923,370.086 360.222,368.916 C359.491,368.414 358.495,366.514 358.287,365.604 C362.358,362.33 365.761,354.131 371.086,353.339" id="Fill-38" fill="#1A3151"></path>
            <path d="M327.316,361.125 C325.228,361.707 322.961,361.621 320.972,362.493 C317.985,363.803 318.166,366.904 317.32,369.597 C316.384,372.58 315.023,376.583 313.056,378.902 C311.639,380.574 309.655,381.526 307.928,382.816 C306.202,384.105 304.615,386.01 304.651,388.334 C304.686,390.537 306.167,392.515 306.383,394.714 C306.647,397.994 306.08,399.673 307.091,403.025 C307.613,404.755 308.197,406.587 309.495,407.767 C311.206,409.32 313.643,409.291 315.783,408.933 C317.922,408.575 320.134,407.981 322.244,408.691 C326.821,410.23 325.967,414.859 327.185,418.738 C329.039,424.642 335.884,428.087 341.12,425.988 C345.561,424.208 348.131,419.053 347.93,413.963 C347.829,411.415 346.815,409.041 346.741,406.49 C346.67,404.03 348.057,400.624 345.828,398.672 C345.284,398.197 344.588,397.946 344.1,397.404 C343.706,396.966 343.487,396.379 343.35,395.792 C342.875,393.76 343.323,391.542 344.521,389.986 C345.383,388.868 346.617,388.05 347.145,386.701 C347.749,385.154 347.271,383.346 347.168,381.637 C346.921,377.506 349.18,373.455 352.621,371.86 C354.889,370.81 356.932,370.189 358.914,368.59 C359.216,368.347 363.725,364.362 363.842,365.223 C363.639,363.724 362.764,362.413 361.878,361.21 C360.42,359.233 358.802,357.307 356.749,356.123 C350.112,352.294 349.791,361.193 344.463,360.022 C343.178,359.74 342.21,358.562 341.053,357.858 C338.868,356.53 336.184,357.005 333.95,358 C331.715,358.996 329.668,360.471 327.316,361.125" id="Fill-39" fill="#1A3151"></path>
            <polyline id="Fill-40" fill="#3B455A" points="762.702 559.857 811.454 543.498 799.09 627.728 803.049 706.485 794.177 706.485 773.508 636.549 764.242 567.028 762.702 559.857"></polyline>
            <polyline id="Fill-41" fill="#1A3151" points="793.654 705.438 803.531 705.472 805.813 713.872 805.562 713.938 805.625 713.947 789.03 723.148 781.247 723.789 780.515 714.894 782.655 713.419 793.654 705.438"></polyline>
            <polyline id="Fill-42" fill="#3B455A" points="724.778 560.368 735.458 710.355 743.859 711.393 756.481 628.335 775.341 550.995 724.778 560.368"></polyline>
            <polyline id="Fill-43" fill="#1A3151" points="735.04 708.849 722.186 715.658 723.2 721.66 745.899 718.901 744.815 710.264 735.04 708.849"></polyline>
            <path d="M824.75,584.194 C825.767,559.662 803.857,481.65 803.857,481.65 L803.86,481.649 C801.543,474.319 799.775,466.863 798.717,459.388 C797.964,454.066 782.017,393.584 783.075,393.507 C772.09,394.309 750.91,391.712 742.774,399.514 C742.542,399.737 742.32,399.968 742.109,400.208 C735.765,407.442 732.47,422.09 729.471,431.104 C725.531,442.946 722.505,455.093 720.438,467.4 C718.631,478.162 717.558,489.033 716.799,499.915 C716.146,509.27 716.664,518.572 716.345,527.775 C715.993,537.963 712.937,549.008 710.657,558.919 C708.362,568.9 705.448,578.762 701.417,588.189 C712.323,593.016 724.47,594.32 736.396,594.366345 C748.322,594.411 760.233,593.261 772.157,593.443 C782.241,593.599 792.449,594.697 802.329,592.676 C810.186,591.067 817.439,587.57 824.75,584.194" id="Fill-44" fill="#5BBCB9"></path>
            <path d="M745.468,367.855 C740.455,370.332 735.229,376.717 735.552,382.661 C735.707,385.523 737.291,387.747 737.335,390.817 C737.447,396.869 746.622,403.205 741.006,409.042 C738.119,412.042 733.607,412.63 729.464,413.046 C728.962,413.096 728.435,413.144 727.97,412.946 C727.204,412.623 726.831,411.716 726.849,410.885 C726.866,410.054 727.187,409.264 727.439,408.472 C730.074,400.188 726.095,390.527 725.625,382.086 C725.156,373.662 727.151,364.567 734.057,359.077 C738.688,360.489 742.139,362.445 744.416,366.718 L745.468,367.855" id="Fill-45" fill="#1A3151"></path>
            <path d="M748.583,403.809 C742.872,403.089 738.018,398.875 735.357,393.77 C732.697,388.666 731.959,382.77 731.931739,377.014 C731.841,357.86 755.543,356.567 765.071,370.241 C773.375,382.158 765.188,405.899 748.583,403.809" id="Fill-46" fill="#EFBFA5"></path>
            <path d="M777.277,406.145 C774.335,405.307 771.421,404.382 769.143,401.897 C765.462,397.88 764.364,390.315 762.629,385.31 C760.802,380.034 758.642,374.334 753.847,371.474 C750.715,369.606 747.562,369.75 744.131,370.365 C741.781,370.786 741.865,371.69 739.638,370.821 C737.931,370.155 736.071,367.532 735.39,365.919 C734.242,363.197 734.795,359.981 736.236,357.403 C738.454,353.435 741.542,351.075 745.871,350.126 C761.066,346.795 774.298,353.596 781.525,367.663 C784.999,374.423 785.033,382.703 788.593,389.167 C790.79,393.158 794.075,395.46 796.071,399.778 C801.249,410.981 810.701,424.753 812.593,437.018 C812.663,437.471 812.708,437.98 812.429,438.346 C811.862,439.089 810.688,438.549 809.953,437.971 C805.662,434.596 801.371,431.22 797.08,427.845 C795.396,426.519 793.687,425.169 792.433,423.431 C789.31,419.102 789.235,412.725 785.04,409.424 C782.751,407.623 780.002,406.92 777.277,406.145" id="Fill-47" fill="#1A3151"></path>
            <path d="M848.443,382.941 C851.313,383.476 858.79,381.475 860.508,378.836 C864.472,372.746 855.067,374.621 851.669,374.539 C852.058,373.359 852.47,372.23 852.62,371.022 C852.758,369.915 842.664,372.791 841.692,373.849 C839.357,376.386 840.422,378.303 840.632,381.512 C843.239,381.926 845.842,382.455 848.443,382.941" id="Fill-48" fill="#EFBFA5"></path>
            <polyline id="Fill-49" fill="#5BBCB9" points="769.064 444.164 824.222 434.986 849.621 383.479 839.524 375.159 812.646 410.826 784.564 409.633 758.57 410.759 769.064 444.164"></polyline>
            <polyline id="Fill-50" fill="#EFBFA5" points="215.466 556.674 167.202 538.925 177.15 623.475 171.386 696.419 171.231 696.904 171.346 696.918 170.961 701.779 179.473 703.325 202.469 633.024 213.721 563.798 215.466 556.674"></polyline>
            <polyline id="Fill-51" fill="#1A3151" points="180.359 701.309 170.485 701.059 167.963 709.391 168.212 709.465 168.149 709.472 184.474 719.145 192.236 720.007 193.222 711.137 191.125 709.601 180.359 701.309"></polyline>
            <polyline id="Fill-52" fill="#EFBFA5" points="248.342 558.126 233.418 707.275 225.041 709.329 214.705 625.157 198.068 547.31 248.342 558.126"></polyline>
            <polyline id="Fill-53" fill="#1A3151" points="233.832 706.252 246.486 713.427 245.3 719.397 222.69 715.989 224.021 707.387 233.832 706.252"></polyline>
            <path d="M270.969,594.482 C274.024,592.361 274.089,588.669 274.084199,584.972 C274.073,578.027 272.825,570.929 271.233,564.181 C268.202,551.521 264.767,536.274 263.256,519.87 C259.351,477.475 245.963,449.025 245.963,449.025 L241.643,437.505 C240.784,436.007 239.893,434.525 238.963,433.065 C233.567,424.599 224.199,410.21 214.179,407.855 C213.97,407.806 213.76,407.758 213.548,407.712 C203.013,405.399 189.515,406.473 179.994,411.594 C178.188,412.565 176.582,413.86 174.987,415.146 C170.332,418.901 166.535,420.935 164.528,426.657 C162.786,431.626 162.381,437.047 161.42,442.195 C159.468,452.656 158.304,463.242 156.745,473.764 C153.823,493.495 151.341,513.289 148.214,532.989 C146.605,543.129 144.984,553.286 144.224,563.531 C143.552,572.59 135.38,581.787 130.788,589.905 C129.19,592.73 152.14,600.051 154.196,600.529 C163.716,602.745 173.843,602.18 183.657,602.224 C205.163,602.321 226.673,601.658 248.132,600.235 C255.263,599.763 264.051,598.401 270.378,594.852 C270.587,594.734 270.784,594.611 270.969,594.482" id="Fill-54" fill="#9EA6AD"></path>
            <path d="M201.735,406.553 C201.735,406.553 189.621,403.282 187.947,430.616 C186.274,457.95 183.485,527.122 179.58,546.089 C175.675,565.056 169.817,602.258 169.817,602.258 L206.914,603.547 L249.31,600.199 C249.31,600.199 234.806,573.423 232.574,554.457 C230.343,535.49 234.248,464.087 224.765,437.311 C215.281,410.534 213.292,407.033 201.735,406.553" id="Fill-55" fill="#B5D6CA"></path>
            <polyline id="Fill-56" fill="#9EA6AD" points="256.562 467.434 259.351 470.78 269.392 456.835 229.227 412.207 214.166 407.745 221.417 427.27 256.562 467.434"></polyline>
            <polyline id="Fill-57" fill="#EFBFA5" points="222.992 455.886 214.177 449.168 216.884 445.275 223.939 448.539 224.365 446.104 231.208 452.771 228.94 457.198 222.992 455.886"></polyline>
            <polyline id="Fill-58" fill="#9EA6AD" points="257.521 454.169 257.126 455.037 229.648 449.737 225.597 458.75 259.351 470.78 257.521 454.169"></polyline>
            <path d="M218.632,384.896 C220.464,390.4 217.812,396.269 215.483,401.284 C213.418,405.732 212.7,408.659 217.942,409.859 C220.896,410.536 226.138,411.798 228.729,409.536 C230.69,407.822 229.587,402.531 228.633,400.429 C227.904,398.824 225.975,398.009 225.289,396.385 C225.007,395.716 224.966,394.972 224.956,394.246 C224.915,391.278 225.325,388.305 226.169,385.46 C226.742,383.528 227.518,381.63 227.69,379.623 C227.941,376.711 225.883,373.319 224.801,370.644 C222.788,365.667 215.783,358.992 209.917,362.898 C208.582,363.788 207.804,365.292 207.154,366.759 C206.766,367.635 206.397,368.549 206.385,369.507 C206.34,373.328 209.829,373.973 212.238,375.792 C215.209,378.034 217.462,381.384 218.632,384.896" id="Fill-59" fill="#1A3151"></path>
            <path d="M207.475,406.372 C212.563,405.174 216.541,400.902 218.452,396.037 C220.364,391.172 220.464,385.777 219.935,380.577 C218.176,363.272 196.649,364.383 189.36,377.646 C183.007,389.205 192.681,409.857 207.475,406.372" id="Fill-60" fill="#EFBFA5"></path>
            <path d="M207.469,404.508 C207.384,406.479 207.299,408.45 207.214,410.421 C207.201,410.71 207.177,411.026 206.975,411.233 C206.745,411.469 206.375,411.473 206.046,411.462 C204.44,411.406 202.833,411.351 201.227,411.295 C200.431,411.268 199.603,411.231 198.901,410.855 C197.364,410.03 197.047,407.947 197.292,406.221 C197.537,404.494 198.156,402.755 197.79,401.05 C201.107,402.684 204.258,398.991 207.575,400.625 L207.469,404.508" id="Fill-61" fill="#EFBFA5"></path>
            <path d="M200.527,350.576 C194.875,352.497 191.25,358.213 185.735,360.497 C182.571,361.806 178.828,361.972 176.247,364.222 C170.463,369.263 175.112,379.841 170.36,385.865 C169.372,387.117 168.04,388.064 167.048,389.313 C164.908,392.008 164.629,395.686 164.437,399.121 C164.394,399.894 164.386,400.736 164.521,401.514 C165.264,409.447 176.781,408.943 181.356,408.435 C186.377,407.877 184.703,405.088 184.703,405.088 L184.521,404.865 C184.039,401.644 185.364,398.208 187.895,396.156 C188.834,395.395 189.945,394.788 190.607,393.776 C192.094,391.506 190.674,388.498 190.893,385.793 C191.772,374.899 210.057,377.233 215.217,369.478 C221.544,359.966 211.202,346.95 200.527,350.576" id="Fill-62" fill="#1A3151"></path>
            <path d="M260.328,200.063 L102.863,212.851 C102.256,212.9 101.808,213.466 101.863,214.115 L111.744,331.403 C111.799,332.052 112.335,332.539 112.941,332.489 L148.532,329.599 L175.794,361.264 C176.591,362.189 178.128,361.578 178.044,360.369 L175.77,327.387 L237.329,322.388 C256.204,320.855 270.126,303.244 268.425,283.051 L261.525,201.149 C261.47,200.5 260.934,200.014 260.328,200.063" id="Fill-63" fill="#145566"></path>
            <polyline id="Fill-64" fill="#FFFFEE" points="242.792 225.234 144.708 233.199 144.37 229.187 242.455 221.221 242.792 225.234"></polyline>
            <polyline id="Fill-65" fill="#FFFFEE" points="245.37 255.83 128.383 265.331 128.045 261.318 245.032 251.817 245.37 255.83"></polyline>
            <polyline id="Fill-66" fill="#FFFFEE" points="247.948 286.426 130.961 295.927 130.623 291.915 247.61 282.414 247.948 286.426"></polyline>
            <path d="M577.792,240.312 C577.792,206.343 616.803,178.805 664.927,178.805 C713.05,178.805 752.062,206.343 752.062,240.312 C752.062,274.282 713.05,301.819 664.927,301.819 C663.014,301.819 661.117,301.773 659.235,301.687 C658.381,301.647 657.714,302.416 657.868,303.257 L664.811,341.125 C665.053,342.445 663.409,343.253 662.511,342.255 L617.173,291.879 C617.054,291.747 616.91,291.641 616.749,291.565 C593.27,280.546 577.792,261.707 577.792,240.312" id="Fill-67" fill="#B5D6CA"></path>
            <path d="M701.996,247.838 C696.97,247.838 696.961,240.028 701.996,240.028 C707.021,240.028 707.029,247.838 701.996,247.838" id="Fill-68" fill="#1A3151"></path>
            <path d="M666.848,247.838 C661.823,247.838 661.814,240.028 666.848,240.028 C671.874,240.028 671.882,247.838 666.848,247.838" id="Fill-69" fill="#1A3151"></path>
            <path d="M622.915,247.838 C617.889,247.838 617.881,240.028 622.915,240.028 C627.94,240.028 627.949,247.838 622.915,247.838" id="Fill-70" fill="#1A3151"></path>
            <polyline id="Fill-71" fill="#EFBFA5" points="141.031 331.323 144.333 319.748 149.341 320.943 148.835 329.371 151.466 328.836 147.434 338.397 142.06 337.857 141.031 331.323"></polyline>
            <polyline id="Fill-72" fill="#9EA6AD" points="185.212 419.216 148.599 389.644 149.885 335.618 139.166 335.091 123.51 398.541 160.173 444.793 185.212 419.216"></polyline>
            <polyline id="Fill-73" fill="#EBB044" points="654.926 405.519 678.788 379.74 673.167 309.875 683.651 305.27 697.914 376.141 693.549 393.804 666.798 430.708 654.926 405.519"></polyline>
            <polyline id="Fill-74" fill="#B97262" points="683.651 305.27 683.651 289.252 676.324 284.972 672.8 291.47 672.8 297.992 668.997 299.557 673.167 309.875 683.651 305.27"></polyline>
            <path d="M430.957,154.211 L558.5,153.965959 C570.306,153.943 579.895,163.496 579.917,175.301 L580.075038,257.515 C580.097,269.272 570.62,278.841 558.863,278.931 L538.367,279.088 L515.063,311.918 C514.382,312.876 512.872,312.409 512.852,311.233 L512.312,279.139 L431.146,279.104 C419.36,279.099 409.802,269.555 409.779,257.769 L409.621959,175.628 C409.599,163.822 419.151,154.233 430.957,154.211" id="Fill-75" fill="#EBB044"></path>
            <polyline id="Fill-76" fill="#FFFFEF" points="434.162 183.186 536.052 183.212 536.053 178.967 434.163 178.941 434.162 183.186"></polyline>
            <polyline id="Fill-77" fill="#FFFFEF" points="434.154 215.557 555.678 215.588 555.68 211.343 434.155 211.312 434.154 215.557"></polyline>
            <polyline id="Fill-78" fill="#FFFFEF" points="434.146 247.929 555.67 247.959 555.671 243.714 434.147 243.683 434.146 247.929"></polyline>
            <path d="M428.412,265.029 C428.144,248.759 414.826,235.771 398.595,235.856 C398.608,235.345 398.617,234.832 398.609,234.315 C398.281,214.443 381.906,198.599 362.033,198.927 C351.221,199.105 341.608,204.041 335.137,211.7 C328.923,204.848 319.908,200.601 309.933,200.765 C292.18,201.058 277.907,215.2 277.23,232.728 C276.478,232.683 275.721,232.657 274.955,232.669 C258.571,232.939 245.508,246.44 245.778,262.824 C245.996,276.004 254.778,287.028 266.732,290.698 C265.307,294.186 264.547,298.012 264.613,302.018 C264.875,317.874 277.94,330.514 293.795,330.252 C295.011,330.232 296.206,330.134 297.38,329.967 L297.886,360.676 C297.928,362.007 299.646,362.511 300.118,361.825 L319.132,334.196 C323.721,337.134 329.193,338.806 335.05,338.709 C345.674,338.534 354.848,332.605 359.671,323.946 C364.648,326.95 370.498,328.644 376.74,328.541 C394.445,328.249 408.561,313.659 408.269,295.954 C408.256,295.184 408.207,294.423 408.141,293.667 C420.099,289.68 428.631,278.302 428.412,265.029" id="Fill-79" fill="#5BBCB9"></path>
            <path d="M371.915,269.108 C367.534,269.181 367.639,275.989 372.027,275.917 C376.408,275.845 376.303,269.036 371.915,269.108" id="Fill-80" fill="#ECE9DE"></path>
            <path d="M341.277,269.614 C336.896,269.686 337.001,276.495 341.389,276.422 C345.77,276.35 345.665,269.542 341.277,269.614" id="Fill-81" fill="#ECE9DE"></path>
            <path d="M302.979,270.246 C298.598,270.318 298.703,277.126 303.091,277.054 C307.472,276.982 307.367,270.173 302.979,270.246" id="Fill-82" fill="#ECE9DE"></path>
            <polyline id="Fill-83" fill="#B97262" points="398.788 322.068 392.158 312.022 387.741 314.668 390.757 322.553 388.087 322.835 394.808 330.741 399.771 328.61 398.788 322.068"></polyline>
            <polyline id="Fill-84" fill="#B5D6CA" points="377.113 411.998 409.106 379.966 391.635 328.827 401.699 325.102 435.708 380.908 391.883 435.228 377.113 411.998"></polyline>
        </g>
    </g>
</svg>